<?xml version="1.0" standalone="no"?><!DOCTYPE svg PUBLIC "-//W3C//DTD SVG 1.1//EN" "http://www.w3.org/Graphics/SVG/1.1/DTD/svg11.dtd"><svg class="icon" width="200px" height="200.00px" viewBox="0 0 1024 1024" version="1.1" xmlns="http://www.w3.org/2000/svg"><path d="M899.77893888 461.94991445H246.94328889c-0.09708999 0-0.19418112-0.24272555-0.09708999-0.24272668l246.22117888-236.65777778a50.00154112 50.00154112 0 1 0-69.41961444-72.13814442l-335.15595889 322.09730332a50.09863111 50.09863111 0 0 0 0 72.13814556l337.00067555 323.94201998a49.85590557 49.85590557 0 0 0 70.77888-1.35926442 50.09863111 50.09863111 0 0 0-1.40780999-70.77888l-246.17263446-236.65777778c-0.14563555-0.09708999 0-0.24272555 0.09709-0.24272668H900.84693333c26.6027611 0 48.35100445-20.82588445 49.95299556-46.99173888 1.6990811-28.98147555-22.08805888-53.10843221-51.06953444-53.10843222z" /></svg>
