<?xml version="1.0" standalone="no"?><!DOCTYPE svg PUBLIC "-//W3C//DTD SVG 1.1//EN" "http://www.w3.org/Graphics/SVG/1.1/DTD/svg11.dtd"><svg class="icon" width="200px" height="200.00px" viewBox="0 0 1024 1024" version="1.1" xmlns="http://www.w3.org/2000/svg"><path d="M124.26960555 461.94991445h652.73856c0.09708999 0 0.19418112-0.24272555 0.09709112-0.24272668L530.88407666 225.09795555a50.00154112 50.00154112 0 1 1 69.41961557-72.13814556l335.30159332 322.24294002a50.09863111 50.09863111 0 0 1 0 72.13814442l-337.14631112 323.89347556a49.85590557 49.85590557 0 0 1-70.77888-1.35926442 50.09863111 50.09863111 0 0 1 1.40781114-70.77888l246.17263331-236.65777778c0.14563555-0.09708999 0-0.19418112-0.09708999-0.19418112H123.15306667c-26.6027611 0-48.35100445-20.87443001-49.95299556-46.99173888a50.82680889 50.82680889 0 0 1 51.06953444-53.25406891z" /></svg>
