<?xml version="1.0" standalone="no"?><!DOCTYPE svg PUBLIC "-//W3C//DTD SVG 1.1//EN" "http://www.w3.org/Graphics/SVG/1.1/DTD/svg11.dtd"><svg class="icon" width="200px" height="200.00px" viewBox="0 0 1024 1024" version="1.1" xmlns="http://www.w3.org/2000/svg"><path d="M562.05008555 124.26960555v652.73856c0 0.09708999 0.24272555 0.19418112 0.24272668 0.09709112l236.65777778-246.22118001a50.00154112 50.00154112 0 1 1 72.13814442 69.41961557l-322.09730332 335.15595776a50.09863111 50.09863111 0 0 1-72.13814556 0L152.76563001 598.45897443a49.85590557 49.85590557 0 0 1 1.35926442-70.77888 50.09863111 50.09863111 0 0 1 70.77888 1.40781114l236.65777778 246.17263331c0.09708999 0.14563555 0.19418112 0 0.19418112-0.09708999V123.15306667c0-26.6027611 20.87443001-48.35100445 46.99173888-49.95299556 29.12711111-1.6990811 53.25406777 22.08805888 53.25406891 51.06953444z" /></svg>
