<?xml version="1.0" standalone="no"?><!DOCTYPE svg PUBLIC "-//W3C//DTD SVG 1.1//EN" "http://www.w3.org/Graphics/SVG/1.1/DTD/svg11.dtd"><svg class="icon" width="200px" height="200.00px" viewBox="0 0 1024 1024" version="1.1" xmlns="http://www.w3.org/2000/svg"><path d="M817.84999971 793.25H793.25V399.5a281.25 281.25 0 0 0-249.59999971-279.48750029V93.65000029a31.6125 31.6125 0 1 0-63.30000058 0v26.36249942A281.25 281.25 0 0 0 230.75 399.5v393.75h-24.59999971a31.6125 31.6125 0 1 0 0 63.29999971h242.58749942v42.1875a63.225 63.225 0 1 0 126.52500058 0v-42.1875h242.62499971a31.6125 31.6125 0 1 0 0-63.29999971z m-87.8625 0H294.04999971V399.5A217.9125 217.9125 0 0 1 512 181.51250029 217.9125 217.9125 0 0 1 729.98749971 399.5v393.75z" /></svg>
