<?xml version="1.0" standalone="no"?><!DOCTYPE svg PUBLIC "-//W3C//DTD SVG 1.1//EN" "http://www.w3.org/Graphics/SVG/1.1/DTD/svg11.dtd"><svg class="icon" width="200px" height="200.00px" viewBox="0 0 1024 1024" version="1.1" xmlns="http://www.w3.org/2000/svg"><path d="M584.07989097 511.88953316l329.85525537-329.63432169a50.81494186 50.81494186 0 0 0 0-71.96942414 50.81494186 50.81494186 0 0 0-71.96942284 0L512 439.75440814 182.0342765 110.1753205a50.81494186 50.81494186 0 0 0-71.96942284 0 50.81494186 50.81494186 0 0 0 0 71.96942412l329.85525537 329.57908765-329.85525537 329.74478854a50.81494186 50.81494186 0 0 0 35.95709503 86.82727096c13.09037101 0 26.0150411-4.9157929 36.01232781-14.85784812L512 583.858956l329.9657235 329.74478854c9.94205392 9.94205392 22.92195809 14.85784682 36.01232781 14.85784811a50.81494186 50.81494186 0 0 0 36.0123291-86.882505l-329.91048944-329.74478855z" /></svg>
