<?xml version="1.0" standalone="no"?><!DOCTYPE svg PUBLIC "-//W3C//DTD SVG 1.1//EN" "http://www.w3.org/Graphics/SVG/1.1/DTD/svg11.dtd"><svg t="1669782073629" class="icon" viewBox="0 0 1024 1024" version="1.1" xmlns="http://www.w3.org/2000/svg" p-id="2228" xmlns:xlink="http://www.w3.org/1999/xlink" width="200" height="200"><path d="M833.42857168 62H295.03571417c-4.41964249 0-8.03571415 3.61607167-8.03571417 8.03571415v56.25c0 4.41964249 3.61607167 8.03571415 8.03571417 8.03571417h498.21428583v691.07142921c0 4.41964249 3.61607167 8.03571415 8.03571417 8.03571415h56.25c4.41964249 0 8.03571415-3.61607167 8.03571415-8.03571415V94.14285753c0-17.77901748-14.36383916-32.14285751-32.14285664-32.14285753zM704.85714247 190.57142832H190.57142832c-17.77901748 0-32.14285751 14.36383916-32.14285664 32.14285751v533.06919669c0 8.53794668 3.41517833 16.67410752 9.44196416 22.70089248l174.07366083 174.07366084c2.20982167 2.20982167 4.72098252 4.01785751 7.43303585 5.52455332v1.90848252h4.21875c3.515625 1.30580332 7.23214249 2.00892833 11.04910664 2.00892832H704.85714247c17.77901748 0 32.14285751-14.36383916 32.14285753-32.14285753V222.71428583c0-17.77901748-14.36383916-32.14285751-32.14285753-32.14285751zM349.27678583 857.73660752L262.79241084 771.15178583H349.27678583v86.58482169zM664.67857168 889.67857168H413.5625V747.04464247c0-22.19866084-17.97991084-40.17857168-40.17857168-40.17857079H230.75V262.89285753h433.92857168v626.78571415z" p-id="2229"></path></svg>