<?xml version="1.0" standalone="no"?><!DOCTYPE svg PUBLIC "-//W3C//DTD SVG 1.1//EN" "http://www.w3.org/Graphics/SVG/1.1/DTD/svg11.dtd"><svg class="icon" width="200px" height="200.00px" viewBox="0 0 1024 1024" version="1.1" xmlns="http://www.w3.org/2000/svg"><path d="M558.933333 895.701333c-9.642667 0-19.328-3.2-27.434666-9.6l-423.808-340.906666a43.733333 43.733333 0 0 1 0-68.096l421.973333-339.114667a43.690667 43.690667 0 0 1 54.741333 68.096L204.8 511.146667l381.482667 306.901333a43.690667 43.690667 0 0 1-27.392 77.696z m329.984 0c-9.6 0-19.328-3.2-27.434666-9.6l-423.765334-340.906666a43.733333 43.733333 0 0 1 0-68.096l421.973334-339.114667a43.690667 43.690667 0 0 1 54.698666 68.096l-379.605333 305.024 381.525333 306.901333a43.690667 43.690667 0 0 1-27.392 77.696z" /></svg>
