<?xml version="1.0" standalone="no"?><!DOCTYPE svg PUBLIC "-//W3C//DTD SVG 1.1//EN" "http://www.w3.org/Graphics/SVG/1.1/DTD/svg11.dtd"><svg class="icon" width="200px" height="200.00px" viewBox="0 0 1024 1024" version="1.1" xmlns="http://www.w3.org/2000/svg"><path d="M425.61991147 903.85066667a46.60337813 46.60337813 0 0 1 7.14524373-65.44497814l406.9148448-327.36142186-404.9123552-325.35893334a46.60337813 46.60337813 0 0 1 58.34524373-72.63573333l450.1048896 361.72231147a46.64888853 46.64888853 0 0 1 0 72.63573333l-452.01635626 363.63377707a46.73991147 46.73991147 0 0 1-65.5815104-7.14524374z m-352.0284448 0a46.60337813 46.60337813 0 0 1 7.1452448-65.44497814l406.9603552-327.36142186L82.78471147 185.68533333A46.60337813 46.60337813 0 0 1 141.0844448 113.0496l450.10488853 361.72231147a46.64888853 46.64888853 0 0 1 0 72.63573333l-452.0163552 363.63377707a46.73991147 46.73991147 0 0 1-65.58151146-7.14524374z" /></svg>
