<?xml version="1.0" standalone="no"?><!DOCTYPE svg PUBLIC "-//W3C//DTD SVG 1.1//EN" "http://www.w3.org/Graphics/SVG/1.1/DTD/svg11.dtd"><svg class="icon" width="200px" height="200.00px" viewBox="0 0 1024 1024" version="1.1" xmlns="http://www.w3.org/2000/svg"><path d="M953.66409443 368.40334222v-218.45333333a45.4868389 45.4868389 0 1 0-91.02222222 0v218.45333333a251.56115001 251.56115001 0 0 1-74.1770422 179.13173333 251.65824 251.65824 0 0 1-179.08318891 74.12849778H223.2532389l127.86801777-127.77092778a45.63247445 45.63247445 0 0 0-32.18545777-77.67229554 45.29265778 45.29265778 0 0 0-32.23400335 13.30137998l-203.06451 203.06451001a45.53538333 45.53538333 0 0 0 0 64.41946112l208.98702222 209.13265778a45.4868389 45.4868389 0 1 0 64.41946112-64.41946112L228.01066667 712.68579555h381.37097443a342.00083001 342.00083001 0 0 0 243.50264889-100.77980444 341.51537778 341.51537778 0 0 0 100.77980444-243.50264889z" /></svg>
