<?xml version="1.0" standalone="no"?><!DOCTYPE svg PUBLIC "-//W3C//DTD SVG 1.1//EN" "http://www.w3.org/Graphics/SVG/1.1/DTD/svg11.dtd"><svg class="icon" width="200px" height="200.00px" viewBox="0 0 1024 1024" version="1.1" xmlns="http://www.w3.org/2000/svg"><path d="M953.49333333 823.46666667l-25.6-212.48c-0.85333333-7.04-9.49333333-10.02666667-14.50666666-5.01333334L850.13333333 669.33333333 560.74666667 380.05333333c-6.72-6.61333333-17.49333333-6.61333333-24.10666667 0L428.05333333 488.53333333 132.90666667 193.38666667c-3.30666667-3.30666667-8.74666667-3.30666667-12.05333334 0l-48 48.21333333c-3.30666667 3.30666667-3.30666667 8.74666667 0 12.05333333L416 597.01333333c6.61333333 6.72 17.49333333 6.72 24.10666667 0L548.69333333 488.53333333l241.17333334 241.06666667-63.25333334 63.25333333c-5.01333333 5.01333333-2.02666667 13.65333333 5.01333334 14.50666667l212.48 25.6c5.44 0.74666667 10.13333333-3.94666667 9.38666666-9.49333333z" /></svg>
