<?xml version="1.0" standalone="no"?><!DOCTYPE svg PUBLIC "-//W3C//DTD SVG 1.1//EN" "http://www.w3.org/Graphics/SVG/1.1/DTD/svg11.dtd"><svg class="icon" width="200px" height="200.00px" viewBox="0 0 1024 1024" version="1.1" xmlns="http://www.w3.org/2000/svg"><path d="M831.57499971 327.23749971L587.375 80.74999971a67.5 67.5 0 0 0-12.9375-10.125c-1.19999971-0.675-2.43749971-1.38750029-3.75000029-1.98749971-0.7875-0.45-1.6875-0.7875-2.475-1.125A62.8875 62.8875 0 0 0 542.75000029 62H239.525c-34.94999971 0-64.125 28.31249971-64.125 63.29999971v773.4375c0 34.94999971 29.17500029 63.26250029 64.125 63.26250029h547.57500029c34.9875 0 62.39999971-28.31249971 62.39999971-63.29999971V371.825c0-16.72499971-6.14999971-32.69999971-17.92500029-44.58750029z m-256.275-168.22499942l176.47500058 177.22499942h-176.47500058V159.04999971z m210.9375 739.72499942H238.625V125.29999971H512v210.9375C512 371.18750029 541.17500029 399.5 576.125 399.5h210.11249971v499.23749971z m-210.07499942-411.37499971a31.6125 31.6125 0 0 0-31.65000029-31.6125h-225a31.6125 31.6125 0 1 0 0 63.29999971h225a31.6125 31.6125 0 0 0 31.65000029-31.64999942z m168.75 140.625a31.6125 31.6125 0 0 0-31.65000029-31.6125h-393.75a31.6125 31.6125 0 1 0 0 63.29999971h393.75a31.6125 31.6125 0 0 0 31.65000029-31.64999942z m-112.5 140.625a31.6125 31.6125 0 0 0-31.65000029-31.6125h-281.25a31.6125 31.6125 0 1 0 0 63.29999971h281.25a31.6125 31.6125 0 0 0 31.65000029-31.64999942z" /></svg>
