<?xml version="1.0" standalone="no"?><!DOCTYPE svg PUBLIC "-//W3C//DTD SVG 1.1//EN" "http://www.w3.org/Graphics/SVG/1.1/DTD/svg11.dtd"><svg class="icon" width="200px" height="200.00px" viewBox="0 0 1024 1024" version="1.1" xmlns="http://www.w3.org/2000/svg"><path d="M401.06666667 437.33333333h512c4.69333333 0 8.53333333-3.84 8.53333333-8.53333333v-59.73333333c0-4.69333333-3.84-8.53333333-8.53333333-8.53333334H401.06666667c-4.69333333 0-8.53333333 3.84-8.53333334 8.53333334v59.73333333c0 4.69333333 3.84 8.53333333 8.53333334 8.53333333zM392.53333333 654.93333333c0 4.69333333 3.84 8.53333333 8.53333334 8.53333334h512c4.69333333 0 8.53333333-3.84 8.53333333-8.53333334v-59.73333333c0-4.69333333-3.84-8.53333333-8.53333333-8.53333333H401.06666667c-4.69333333 0-8.53333333 3.84-8.53333334 8.53333333v59.73333333zM930.13333333 136.53333333H93.86666667c-4.69333333 0-8.53333333 3.84-8.53333334 8.53333334v59.73333333c0 4.69333333 3.84 8.53333333 8.53333334 8.53333333h836.26666666c4.69333333 0 8.53333333-3.84 8.53333334-8.53333333v-59.73333333c0-4.69333333-3.84-8.53333333-8.53333334-8.53333334zM930.13333333 810.66666667H93.86666667c-4.69333333 0-8.53333333 3.84-8.53333334 8.53333333v59.73333333c0 4.69333333 3.84 8.53333333 8.53333334 8.53333334h836.26666666c4.69333333 0 8.53333333-3.84 8.53333334-8.53333334v-59.73333333c0-4.69333333-3.84-8.53333333-8.53333334-8.53333333zM117.76 650.77333333L284.48 519.46666667c4.8-3.73333333 4.8-10.98666667 0-14.82666667L117.76 373.22666667c-6.18666667-4.90666667-15.36-0.53333333-15.36 7.36v262.72c0 7.89333333 9.06666667 12.37333333 15.36 7.46666666z" /></svg>
