<?xml version="1.0" standalone="no"?><!DOCTYPE svg PUBLIC "-//W3C//DTD SVG 1.1//EN" "http://www.w3.org/Graphics/SVG/1.1/DTD/svg11.dtd"><svg class="icon" width="200px" height="200.00px" viewBox="0 0 1024 1024" version="1.1" xmlns="http://www.w3.org/2000/svg"><path d="M512 62C263.44999971 62 62 263.44999971 62 512s201.44999971 450 450 450 450-201.44999971 450-450S760.55000029 62 512 62z m273.41250029 723.41250029a384.71249971 384.71249971 0 0 1-122.9625 82.87499971c-47.62500029 20.25-98.25000029 30.41250029-150.45000029 30.41250029-52.2 0-102.825-10.16250029-150.48749971-30.30000029a387.1125 387.1125 0 0 1-122.92500058-82.87499971 384.71249971 384.71249971 0 0 1-82.87499971-123.00000029A383.7375 383.7375 0 0 1 125.225 512c0-52.2 10.19999971-102.825 30.375-150.48749971a387.1125 387.1125 0 0 1 82.87499971-122.92500058 384.71249971 384.71249971 0 0 1 122.92500058-82.87499971c47.73750029-20.25 98.36250029-30.44999971 150.56249942-30.44999971 52.2 0 102.825 10.19999971 150.45000029 30.375 46.08749971 19.50000029 87.37499971 47.32499971 123.00000029 82.87499971 35.47500029 35.47500029 63.45 76.87500029 82.87499971 122.92499971 20.21249971 47.73750029 30.375 98.36250029 30.375 150.56250029a384.48749971 384.48749971 0 0 1-113.24999971 273.41250029z m-169.50000058-103.23750058h-74.925V374.45000029a31.6125 31.6125 0 0 0-31.6125-31.65000029H424.99999971a31.6125 31.6125 0 1 0 0 63.29999971h52.72500058v276.075H402.83749971a31.6125 31.6125 0 1 0 0 63.30000058l74.88750058-0.03750029h138.15a31.6125 31.6125 0 1 0 0-63.29999971z m-138.18749942-426.375a31.65000029 31.65000029 0 1 0 63.26249942 0 31.65000029 31.65000029 0 0 0-63.26249942 0z" /></svg>
