<?xml version="1.0" standalone="no"?><!DOCTYPE svg PUBLIC "-//W3C//DTD SVG 1.1//EN" "http://www.w3.org/Graphics/SVG/1.1/DTD/svg11.dtd"><svg t="1669774621112" class="icon" viewBox="0 0 1024 1024" version="1.1" xmlns="http://www.w3.org/2000/svg" p-id="3555" xmlns:xlink="http://www.w3.org/1999/xlink" width="200" height="200"><path d="M832.68125 749.825c2.86875 0 5.5125-2.8125 5.5125-5.85 0-3.0375-2.64375-5.79375-5.5125-5.79375-2.86875 0-5.5125 2.8125-5.5125 5.79375 0 3.0375 2.64375 5.85 5.5125 5.85z m-123.525 134.775c2.025 2.1375 4.89375 3.375 7.70625 3.375a10.6875 10.6875 0 0 0 7.7625-3.375 12.09375 12.09375 0 0 0 0-16.3125 10.74375 10.74375 0 0 0-7.7625-3.375 10.6875 10.6875 0 0 0-7.70625 3.375 12.0375 12.0375 0 0 0 0 16.3125zM547.4375 956.9375c3.0375 3.20625 7.3125 5.0625 11.5875 5.0625a16.14375 16.14375 0 0 0 11.5875-5.0625 18.1125 18.1125 0 0 0 0-24.58125 16.14375 16.14375 0 0 0-11.5875-5.11875 16.14375 16.14375 0 0 0-11.5875 5.0625 18.1125 18.1125 0 0 0 0 24.6375z m-174.31875-5.0625c4.05 4.21875 9.73125 6.75 15.46875 6.75a21.4875 21.4875 0 0 0 15.4125-6.75 24.13125 24.13125 0 0 0 0-32.7375 21.4875 21.4875 0 0 0-15.4125-6.75 21.4875 21.4875 0 0 0-15.46875 6.75 24.1875 24.1875 0 0 0 0 32.68125z m-154.40625-80.71875c5.0625 5.34375 12.15 8.4375 19.29375 8.4375a26.8875 26.8875 0 0 0 19.35-8.4375 30.20625 30.20625 0 0 0 0-40.95 26.8875 26.8875 0 0 0-19.35-8.4375 26.8875 26.8875 0 0 0-19.29375 8.4375 30.20625 30.20625 0 0 0 0 40.95z m-106.48125-140.0625c6.075 6.46875 14.625 10.2375 23.175 10.2375a32.2875 32.2875 0 0 0 23.23125-10.18125 36.28125 36.28125 0 0 0 0-49.1625 32.2875 32.2875 0 0 0-23.23125-10.18125 32.34375 32.34375 0 0 0-23.175 10.125 36.28125 36.28125 0 0 0 0 49.21875zM73.19375 558.29375a37.6875 37.6875 0 0 0 27.05625 11.8125 37.6875 37.6875 0 0 0 27.05625-11.8125 42.3 42.3 0 0 0 0-57.31875 37.6875 37.6875 0 0 0-27-11.8125 37.6875 37.6875 0 0 0-27.1125 11.8125 42.3 42.3 0 0 0 0 57.31875z m34.9875-171.73125a43.03125 43.03125 0 0 0 30.9375 13.5 43.03125 43.03125 0 0 0 30.9375-13.5 48.31875 48.31875 0 0 0 0-65.53125 43.03125 43.03125 0 0 0-30.9375-13.55625 43.03125 43.03125 0 0 0-30.9375 13.55625 48.31875 48.31875 0 0 0 0 65.53125zM209.9375 248.75c9.1125 9.675 21.9375 15.3 34.875 15.3 12.825 0 25.65-5.625 34.7625-15.3a54.39375 54.39375 0 0 0 0-73.6875 48.43125 48.43125 0 0 0-34.81875-15.3c-12.88125 0-25.70625 5.625-34.81875 15.3a54.39375 54.39375 0 0 0 0 73.6875zM358.49375 171.6875c10.125 10.6875 24.35625 16.93125 38.64375 16.93125 14.2875 0 28.51875-6.1875 38.64375-16.93125a60.35625 60.35625 0 0 0 0-81.9 53.83125 53.83125 0 0 0-38.64375-16.93125 53.83125 53.83125 0 0 0-38.64375 16.93125 60.4125 60.4125 0 0 0 0 81.9z m166.66875-0.95625c11.1375 11.8125 26.83125 18.675 42.58125 18.675s31.3875-6.8625 42.525-18.675a66.43125 66.43125 0 0 0 0-90.05625A59.23125 59.23125 0 0 0 567.6875 62c-15.75 0-31.44375 6.8625-42.58125 18.675a66.43125 66.43125 0 0 0 0 90.05625z m152.775 76.10625c12.15 12.825 29.25 20.30625 46.35 20.30625 17.2125 0 34.3125-7.48125 46.40625-20.30625a72.45 72.45 0 0 0 0-98.2125 64.575 64.575 0 0 0-46.40625-20.3625c-17.15625 0-34.2 7.48125-46.35 20.3625a72.45 72.45 0 0 0 0 98.2125z m109.0125 139.33125c13.1625 13.95 31.66875 22.05 50.2875 22.05 18.5625 0 37.125-8.1 50.23125-22.05a78.525 78.525 0 0 0 0-106.425 69.975 69.975 0 0 0-50.23125-22.05c-18.61875 0-37.125 8.1-50.2875 22.05a78.525 78.525 0 0 0 0 106.425z m44.325 179.325c14.175 15.01875 34.0875 23.7375 54.16875 23.7375 20.025 0 39.9375-8.71875 54.1125-23.7375a84.6 84.6 0 0 0 0-114.6375 75.375 75.375 0 0 0-54.1125-23.79375c-20.08125 0-39.9375 8.775-54.16875 23.79375a84.54375 84.54375 0 0 0 0 114.6375z" p-id="3556"></path></svg>