<?xml version="1.0" standalone="no"?><!DOCTYPE svg PUBLIC "-//W3C//DTD SVG 1.1//EN" "http://www.w3.org/Graphics/SVG/1.1/DTD/svg11.dtd"><svg class="icon" width="200px" height="200.00px" viewBox="0 0 1024 1024" version="1.1" xmlns="http://www.w3.org/2000/svg"><path d="M824.106667 282.112c-17.322667-42.709333-41.813333-80.896-72.704-113.408a337.194667 337.194667 0 0 0-107.605334-76.885333 321.28 321.28 0 0 0-263.68 0.085333 336.469333 336.469333 0 0 0-107.605333 76.8 358.4 358.4 0 0 0-72.704 113.408 368.042667 368.042667 0 0 0-26.709333 138.581333v470.186667c0 38.4 29.696 69.632 66.304 69.632h544.896c36.608 0 66.304-31.232 66.133333-69.632v-414.976l0.170667-19.114667V420.693333a365.568 365.568 0 0 0-26.496-138.581333zM406.698667 154.794667h0.213333l1.28-0.512a248.362667 248.362667 0 0 1 103.68-22.4c35.925333 0 70.912 7.637333 103.808 22.186666a275.498667 275.498667 0 0 1 86.016 61.44 291.84 291.84 0 0 1 58.88 91.989334c14.506667 35.84 21.845333 73.813333 21.845333 113.194666v29.610667H241.408v-29.696c0-38.997333 7.253333-77.013333 21.76-113.109333A290.517333 290.517333 0 0 1 322.133333 215.594667a268.16 268.16 0 0 1 84.608-60.8z m376.021333 363.605333v372.394667a4.650667 4.650667 0 0 1-0.213333 1.408H241.621333a4.650667 4.650667 0 0 1-0.213333-1.408V518.4h541.312z m-302.336 153.6v89.514667a31.701333 31.701333 0 0 0 63.402667 0v-89.728c16.810667-10.794667 26.88-29.013333 26.88-49.194667a58.709333 58.709333 0 0 0-117.333334 0c0.085333 19.925333 10.368 38.698667 27.050667 49.408z" /></svg>
