<?xml version="1.0" standalone="no"?><!DOCTYPE svg PUBLIC "-//W3C//DTD SVG 1.1//EN" "http://www.w3.org/Graphics/SVG/1.1/DTD/svg11.dtd"><svg class="icon" width="200px" height="200.00px" viewBox="0 0 1024 1024" version="1.1" xmlns="http://www.w3.org/2000/svg"><path d="M124.64 220.23999969h776.32000031a33.72 33.72 0 1 0 0-67.47999938H124.64a33.72 33.72 0 1 0 0 67.47999938z m774.43999969 229.68H369.32a33.72 33.72 0 1 0 0 67.52000062h529.75999969a33.72 33.72 0 1 0 0-67.52000062z m1.88000062 354.40000031H127.44000031a33.72 33.72 0 1 0 0 67.48000031h773.52a33.72 33.72 0 1 0 0-67.48000031zM216.8 608.55999969a33.72 33.72 0 0 0 47.71999969-0.48 33.76000031 33.76000031 0 0 0-0.39999938-47.71999969l-89.44000031-87.91999969 87.84-82.8a33.76000031 33.76000031 0 0 0-46.32-49.12000031l-113.32000031 106.87999969a33.72 33.72 0 0 0-0.48 48.68000062l114.40000031 112.47999938z" /></svg>
