<?xml version="1.0" standalone="no"?><!DOCTYPE svg PUBLIC "-//W3C//DTD SVG 1.1//EN" "http://www.w3.org/Graphics/SVG/1.1/DTD/svg11.dtd"><svg class="icon" width="200px" height="200.00px" viewBox="0 0 1024 1024" version="1.1" xmlns="http://www.w3.org/2000/svg"><path d="M136.53333333 136.53333333v68.26666667H68.26666667v68.26666667h68.26666666v68.26666666h68.26666667V273.06666667h68.26666667V204.8H204.8V136.53333333z m521.59146667 100.28373334L601.6 238.93333333C419.19146667 245.4528 273.06666667 395.19573333 273.06666667 579.20853333c0 188.1088 153.1904 341.33333333 341.33333333 341.33333334 183.97866667 0 333.7216-146.15893333 340.2752-328.53333334l2.11626667-55.46666666-50.10773334 23.4496A202.752 202.752 0 0 1 819.2 579.24266667c-113.4592 0-204.8-91.3408-204.8-204.8 0-31.19786667 7.61173333-59.73333333 20.2752-86.39146667z m-99.19146667 81.06666666c-4.26666667 18.90986667-12.8 36.2496-12.8 56.5248 0 150.39146667 122.6752 273.06666667 273.06666667 273.06666667 20.65066667 0 38.26346667-8.3968 57.61706667-12.8-26.0096 123.73333333-130.69653333 217.6-262.41706667 217.6-151.21066667 0-273.06666667-121.856-273.06666667-273.06666667 0-131.4816 94.13973333-235.07626667 217.6-261.35893333z" /></svg>
