<?xml version="1.0" standalone="no"?><!DOCTYPE svg PUBLIC "-//W3C//DTD SVG 1.1//EN" "http://www.w3.org/Graphics/SVG/1.1/DTD/svg11.dtd"><svg class="icon" width="200px" height="200.00px" viewBox="0 0 1024 1024" version="1.1" xmlns="http://www.w3.org/2000/svg"><path d="M512.00035183 406.53125a29.63671875 29.63671875 0 0 0 29.67187446-29.67187527V119.79687527a29.63671875 29.63671875 0 1 0-59.34374973 0v257.06249946c0 16.41796848 13.2890625 29.67187527 29.67187527 29.67187527zM512.00035183 933.875c-56.953125 0-112.21875-11.10937527-164.21484375-33.1171875a420.46874973 420.46874973 0 0 1-134.05078125-90.4921875A420.46874973 420.46874973 0 0 1 90.12535183 512c0-66.97265625 15.25781223-131.09765625 45.3515625-190.51171902a425.4609375 425.4609375 0 0 1 121.2890625-145.40624973 29.63671875 29.63671875 0 0 1 35.859375 47.10937473 366.25781223 366.25781223 0 0 0-104.203125 125.01562527A359.50781223 359.50781223 0 0 0 149.46910156 512a362.00390652 362.00390652 0 0 0 106.20703125 256.42968777A360.66796848 360.66796848 0 0 0 512.00035183 874.53125027a362.00390652 362.00390652 0 0 0 256.42968696-106.20703125A360.66796848 360.66796848 0 0 0 874.53160129 512c0-57.5859375-13.078125-112.640625-38.95312446-163.65234348a365.48437527 365.48437527 0 0 0-104.23828152-124.98046875 29.56640652 29.56640652 0 0 1-5.62500027-41.51953179 29.56640652 29.56640652 0 0 1 41.5546875-5.62499946 427.32421848 427.32421848 0 0 1 121.2890625 145.44140625c30.05859375 59.41406277 45.31640598 123.3984375 45.31640679 190.51171821a419.20312473 419.20312473 0 0 1-123.609375 298.12500054A421.13671875 421.13671875 0 0 1 512.00035183 933.875z" /></svg>
