<?xml version="1.0" standalone="no"?><!DOCTYPE svg PUBLIC "-//W3C//DTD SVG 1.1//EN" "http://www.w3.org/Graphics/SVG/1.1/DTD/svg11.dtd"><svg t="1669776004958" class="icon" viewBox="0 0 1024 1024" version="1.1" xmlns="http://www.w3.org/2000/svg" p-id="2167" xmlns:xlink="http://www.w3.org/1999/xlink" width="200" height="200"><path d="M900.60051815 505.11371241a31.61152529 31.61152529 0 1 0-62.39807576 10.34968096c2.81241299 16.72448467 4.23736963 34.98642158 4.23736875 52.98586611a328.18988057 328.18988057 0 0 1-96.747017 233.61779706A328.15238203 328.15238203 0 0 1 512 898.73907558a328.377375 328.377375 0 0 1-233.69279414-96.74701699 328.377375 328.377375 0 0 1-96.74701699-233.69279414c0-88.2347792 34.34894122-171.29471836 96.74701699-233.69279502A328.377375 328.377375 0 0 1 512 237.89695185c3.67488633 0 7.38727207 0.07499795 11.06215927 0.18749356L451.176875 309.89473174a31.57402675 31.57402675 0 0 0 0 44.7361207c12.37461855 12.37461855 32.4365001 12.37461855 44.7361207 0l119.35882002-119.35882002a31.57402675 31.57402675 0 0 0 0-44.7361207L495.87549717 71.32708761a31.57402675 31.57402675 0 0 0-44.73612071 0 31.57402675 31.57402675 0 0 0 0 44.73612069L509.75006943 174.52390537a392.57539541 392.57539541 0 0 0-276.02898925 115.30894482A392.57539541 392.57539541 0 0 0 118.26214033 568.29926445a392.42540039 392.42540039 0 0 0 115.30894483 278.39141631A392.57539541 392.57539541 0 0 0 512 961.99962471c53.17336055 0 104.65927295-10.38717949 153.25777441-30.93654551a390.88794727 390.88794727 0 0 0 125.1336419-84.25990196 393.17537724 393.17537724 0 0 0 84.37239843-125.05864394c20.58686543-48.52350352 30.93654638-100.12191328 30.9365464-153.29527382 0-21.67433174-1.76244609-43.04867255-5.09984297-63.37304562z" p-id="2168"></path></svg>