<?xml version="1.0" standalone="no"?><!DOCTYPE svg PUBLIC "-//W3C//DTD SVG 1.1//EN" "http://www.w3.org/Graphics/SVG/1.1/DTD/svg11.dtd"><svg class="icon" width="200px" height="200.00px" viewBox="0 0 1024 1024" version="1.1" xmlns="http://www.w3.org/2000/svg"><path d="M944 191.04l-212.48 25.6c-7.04 0.85333333-10.02666667 9.49333333-5.01333333 14.50666667l63.25333333 63.25333333-241.06666667 241.06666667-108.58666666-108.48c-6.72-6.72-17.49333333-6.61333333-24.10666667 0L72.85333333 770.24c-3.30666667 3.30666667-3.30666667 8.74666667 0 12.05333333l48 48.21333334c3.30666667 3.30666667 8.74666667 3.30666667 12.05333334 0L428.05333333 535.46666667 536.53333333 643.94666667c6.72 6.61333333 17.49333333 6.61333333 24.10666667 0L850.13333333 354.66666667l63.25333334 63.25333333c5.01333333 5.01333333 13.65333333 2.02666667 14.50666666-5.01333333l25.6-212.48c0.74666667-5.44-3.94666667-10.13333333-9.49333333-9.38666667z" /></svg>
