<?xml version="1.0" standalone="no"?><!DOCTYPE svg PUBLIC "-//W3C//DTD SVG 1.1//EN" "http://www.w3.org/Graphics/SVG/1.1/DTD/svg11.dtd"><svg class="icon" width="200px" height="200.00px" viewBox="0 0 1024 1024" version="1.1" xmlns="http://www.w3.org/2000/svg"><path d="M920.82666636 873.02666698l-192.84-192.80000062A358.51999969 358.51999969 0 0 0 810.66666636 450.66666636a360 360 0 0 0-360-360 360 360 0 0 0-360 360 360 360 0 0 0 360 360 358.51999969 358.51999969 0 0 0 229.60000031-82.68l192.79999969 192.80000062a33.79999969 33.79999969 0 0 0 47.80000031 0 34.00000031 34.00000031 0 0 0-0.04000031-47.76z m-356.35999969-152.80000031c-36 15.24-74.23999969 22.92-113.80000031 22.92a291.84 291.84 0 0 1-206.79999938-85.68A291.84 291.84 0 0 1 158.14666667 450.66666636 291.84 291.84 0 0 1 243.86666698 243.86666698 291.84 291.84 0 0 1 450.66666636 158.18666698a291.84 291.84 0 0 1 206.80000031 85.68A291.84 291.84 0 0 1 743.18666698 450.66666636a291.84 291.84 0 0 1-85.68 206.80000031 290.80000031 290.80000031 0 0 1-93.04000031 62.71999969z" /></svg>
