<?xml version="1.0" standalone="no"?><!DOCTYPE svg PUBLIC "-//W3C//DTD SVG 1.1//EN" "http://www.w3.org/Graphics/SVG/1.1/DTD/svg11.dtd"><svg class="icon" width="200px" height="200.00px" viewBox="0 0 1024 1024" version="1.1" xmlns="http://www.w3.org/2000/svg"><path d="M933.68 444.12000031l-3.55999969-22.48000031-68.72000062-22.99999969a363.19999969 363.19999969 0 0 0-22.39999969-54.08000062l32.4-64.8-13.27999969-18.55999969a438.07999969 438.07999969 0 0 0-95.92000031-95.71999969l-18.43999969-13.28000062-64.8 32.4a367.36000031 367.36000031 0 0 0-54.08000062-22.39999969l-22.87999969-68.52-22.32-3.48A424.2 424.2 0 0 0 512 84.39999969c-20.80000031 0-42.40000031 1.87999969-67.8 5.92000031l-22.48000031 3.55999969-22.87999969 68.80000031a380.44000031 380.44000031 0 0 0-54.07999969 22.32l-64.68-32.52-18.48 13.32a429.67999969 429.67999969 0 0 0-95.80000031 95.68000031l-13.32 18.6 32.4 64.8c-8.80000031 17.32000031-16.27999969 35.4-22.27999969 54l-68.72000062 22.75999969-3.6 22.48000031A430.96000031 430.96000031 0 0 0 84.56 512c0 21 1.84000031 43.12000031 5.80000031 67.8l3.55999969 22.48000031 68.71999969 22.95999938c6 18.55999969 13.48000031 36.76000031 22.40000062 54.12l-32.24000062 64.56 13.32 18.40000031c13.84000031 19.32 28.2 36.28000031 43.76000062 51.91999969 14.52 14.64 31.51999969 28.96000031 51.84 43.88000062l18.48 13.32 64.68-32.44000031c17.44000031 8.92000031 35.52 16.48000031 54.07999969 22.39999969l22.87999969 68.80000031 22.52000062 3.6c24.64000031 3.91999969 46.8 5.80000031 67.68 5.80000031 20.92000031 0 43.03999969-1.87999969 67.8-5.80000031l22.47999938-3.6 22.88000062-68.80000031c18.40000031-6 36.48-13.48000031 54-22.32l64.8 32.44000031 18.43999969-13.32a397.27999969 397.27999969 0 0 0 51.84-43.84000031c15.28000031-15.28000031 29.56000031-32.35999969 43.8-51.96l13.32-18.55999969-32.44000031-64.8c8.88-17.32000031 16.39999969-35.4 22.40000062-54.07999969l68.71999969-22.96000031 3.55999969-22.51999969c3.91999969-24.64000031 5.80000031-46.75999969 5.80000031-67.68a379.51999969 379.51999969 0 0 0-5.71999969-67.68z m-61.39999969 67.11999938v0.48c0 12.64000031-0.84 25.48000031-2.4 39.28000031l-33.20000062 11.08000031-29.35999969 9.91999969-9.12 29.52c-5.11999969 17.08000031-12 33.67999969-20.32000031 49.39999969l-14.43999938 27.28000031 29.43999938 58.8a340.03999969 340.03999969 0 0 1-26.07999938 29.44000031l-0.16000031 0.19999969c-8.71999969 8.80000031-18.40000031 17.32000031-29.28 25.84000031l-58.56-29.32000031-27.19999969 14.16c-16.00000031 8.32000031-32.92000031 15.28000031-50.08000031 20.71999969l-29.32000031 9.20000062-9.6 29.04-11.04 33.19999969a318.79999969 318.79999969 0 0 1-78.55999969 0l-11.08000031-33.19999969-9.63999938-29.36000062-29.52-9.07999969a281.64 281.64 0 0 1-49.40000062-20.35999969l-27.39999938-14.24000062-27.64000031 13.8-31.2 15.56000062a340.03999969 340.03999969 0 0 1-29.47999969-26.08000031 333.12 333.12 0 0 1-26.04-29.44000031l29.23999969-58.59999938-14.23999969-27.20000062a288.24 288.24 0 0 1-20.52-49.63999969l-9.12-29.56000031-62.4-20.71999969a318.79999969 318.79999969 0 0 1 0-78.55999969l62.23999969-20.72000062 9.07999969-29.43999938c5.23999969-16.96000031 12.19999969-33.72 20.52-49.84000031l14.24000062-27.19999969-13.68-27.48-15.56000062-31.2c16.39999969-20.44000031 35.08000031-39.12 55.52000062-55.52000062l58.68 29.36000062 27.27999938-14.36000062c15.76000031-8.23999969 32.52-15.19999969 49.88000062-20.59999969l29.31999938-9.19999969 9.76000031-29.20000031 11.08000031-33.16000031c14.16-1.60000031 27-2.4 39.19999969-2.4 12.52000031 0 25.48000031 0.79999969 39.16000031 2.4l20.79999938 62.16 29.36000062 9.08000062c17.08000031 5.35999969 33.84 12.31999969 49.87999969 20.55999938l27.19999969 14.24000062 58.56-29.36000062c20.44000031 16.39999969 39.19999969 35.08000031 55.8 55.60000031l-29.23999969 58.60000031 14.04 27.07999969c8.35999969 16.15999969 15.40000031 33 20.71999969 50.16l9.20000062 29.35999969 29.16 9.76000031 33.19999969 11.04c1.75999969 14.08000031 2.52 26.71999969 2.32000031 38.71999969z m-360.08000062-162.63999938A163.60000031 163.60000031 0 0 0 348.8 512a163.60000031 163.60000031 0 0 0 163.39999969 163.39999969A163.60000031 163.60000031 0 0 0 675.60000031 512a163.60000031 163.60000031 0 0 0-163.40000062-163.39999969z m67.76000062 231.19999969a95.32000031 95.32000031 0 0 1-67.76000062 28.12000031c-25.60000031 0-49.72000031-9.96-67.8-28.12000031A95.32000031 95.32000031 0 0 1 416.28000031 512c0-25.60000031 9.91999969-49.68 28.11999938-67.8a95.32000031 95.32000031 0 0 1 67.8-28.12000031c25.60000031 0 49.68 9.96 67.76000062 28.12000031 18.12 18.19999969 28.12000031 42.19999969 28.11999938 67.8 0 25.60000031-10.00000031 49.68-28.11999938 67.8z" /></svg>
