<?xml version="1.0" standalone="no"?><!DOCTYPE svg PUBLIC "-//W3C//DTD SVG 1.1//EN" "http://www.w3.org/Graphics/SVG/1.1/DTD/svg11.dtd"><svg class="icon" width="200px" height="200.00px" viewBox="0 0 1024 1024" version="1.1" xmlns="http://www.w3.org/2000/svg"><path d="M108.8 647.808H320L87.893333 879.786667a43.946667 43.946667 0 1 0 62.208 62.208l235.690667-235.690667v209.408a43.989333 43.989333 0 0 0 88.021333 0v-312.021333c0-24.32-19.712-43.989333-44.032-43.989334H108.8a43.989333 43.989333 0 0 0 0 88.106667z m485.973333-184.021333h321.024a43.989333 43.989333 0 0 0 0-87.978667h-211.114666l232.106666-232.106667a43.946667 43.946667 0 1 0-62.208-62.208l-235.776 235.690667V107.818667a43.989333 43.989333 0 0 0-88.021333 0v311.978666c0 24.32 19.712 43.989333 44.032 43.989334z" /></svg>
