<?xml version="1.0" standalone="no"?><!DOCTYPE svg PUBLIC "-//W3C//DTD SVG 1.1//EN" "http://www.w3.org/Graphics/SVG/1.1/DTD/svg11.dtd"><svg class="icon" width="200px" height="200.00px" viewBox="0 0 1024 1024" version="1.1" xmlns="http://www.w3.org/2000/svg"><path d="M369.06666667 485.33333333h425.6v54.4H369.06666667v-54.4z m0-134.4h425.6V405.33333333H369.06666667v-54.4z m0 272h425.6v54.4H369.06666667v-54.4z m-150.4 0h102.4v54.4H218.66666667v-54.4zM903.46666667 66.13333333H109.86666667c-28.8 0-51.2 22.4-51.2 51.2v796.8c0 28.8 22.4 51.2 51.2 51.2H906.66666667c28.8 0 51.2-22.4 51.2-51.2V117.33333333c-3.2-28.8-25.6-51.2-54.4-51.2z m0 51.2v793.6H109.86666667V117.33333333h793.6zM218.66666667 485.33333333h102.4v54.4H218.66666667v-54.4z m0-134.4h102.4V405.33333333H218.66666667v-54.4zM369.06666667 213.33333333h425.6v54.4H369.06666667V213.33333333zM218.66666667 213.33333333h102.4v54.4H218.66666667V213.33333333z m150.4 540.8h425.6v54.4H369.06666667v-54.4z m-150.4 0h102.4v54.4H218.66666667v-54.4z" /></svg>
