<?xml version="1.0" standalone="no"?><!DOCTYPE svg PUBLIC "-//W3C//DTD SVG 1.1//EN" "http://www.w3.org/Graphics/SVG/1.1/DTD/svg11.dtd"><svg class="icon" width="200px" height="200.00px" viewBox="0 0 1024 1024" version="1.1" xmlns="http://www.w3.org/2000/svg"><path d="M477.86666667 68.26666667v170.66666666h68.26666666V68.26666667zM221.86666667 173.8752L173.8752 221.86666667l120.5248 121.61706666 49.08373333-49.08373333z m580.26666666 0l-121.61706666 120.5248 49.08373333 49.08373333L850.1248 221.86666667zM512 273.06666667c-131.584 0-238.93333333 107.34933333-238.93333333 238.93333333s107.34933333 238.93333333 238.93333333 238.93333333 238.93333333-107.34933333 238.93333333-238.93333333-107.34933333-238.93333333-238.93333333-238.93333333z m0 68.26666666c94.65173333 0 170.66666667 76.01493333 170.66666667 170.66666667s-76.01493333 170.66666667-170.66666667 170.66666667-170.66666667-76.01493333-170.66666667-170.66666667 76.01493333-170.66666667 170.66666667-170.66666667zM68.26666667 477.86666667v68.26666666h170.66666666v-68.26666666z m716.8 0v68.26666666h170.66666666v-68.26666666zM294.4 680.5504L173.8752 802.13333333 221.86666667 850.1248l121.61706666-120.5248z m435.2 0l-49.08373333 49.0496 121.61706666 120.5248 47.99146667-47.99146667zM477.86666667 785.06666667v170.66666666h68.26666666v-170.66666666z" /></svg>
