<?xml version="1.0" standalone="no"?><!DOCTYPE svg PUBLIC "-//W3C//DTD SVG 1.1//EN" "http://www.w3.org/Graphics/SVG/1.1/DTD/svg11.dtd"><svg class="icon" width="200px" height="200.00px" viewBox="0 0 1024 1024" version="1.1" xmlns="http://www.w3.org/2000/svg"><path d="M125.96868741 393.78276503c-0.36247111 0-0.77672297 0-1.13919409-0.10356265l-1.29453746-0.10356387-0.88028684-0.15534459c-0.51781571-0.10356266-0.93206755-0.10356266-1.34631939-0.25890725l-0.72494102-0.10356266a19.93588978 19.93588978 0 0 1-1.29453869-0.36247112l-0.72494102-0.10356266-1.34632061-0.36247112c-0.25890725-0.15534459-0.51781571-0.15534459-0.72494104-0.25890725l-1.24275673-0.36247111a10125429897477.59 10125429897477.59 0 0 1-1.96769777-0.62137838l-0.93206756-0.36247112-0.98384949-0.36246991c-0.36247111-0.10356266-0.72494102-0.36247111-1.03563021-0.51781571l-0.88028683-0.31068918-1.08741215-0.62137837-0.72494103-0.36247113-1.24275673-0.72494103-0.62137838-0.36247111-1.19097481-0.72494103-0.62137837-0.36247112c-0.36247111-0.25890725-0.72494102-0.51781571-1.03563142-0.88028563a2.64085808 2.64085808 0 0 1-0.62137838-0.46603378c-0.41425184-0.25890725-0.77672297-0.51781571-1.03563021-0.82850489-0.20712653-0.25890725-0.56959644-0.51781571-0.82850489-0.72494103a35.78103823 35.78103823 0 0 1-3.78005095-3.62470756c-0.20712653-0.25890725-0.46603378-0.51781571-0.56959765-0.77672296-0.25890725-0.20712653-0.51781571-0.56959644-0.72494102-0.8285037-0.25890725-0.36247111-0.51781571-0.72494102-0.8285049-0.98384948a2.64085808 2.64085808 0 0 0-0.5178145-0.62137838 6.67981748 6.67981748 0 0 0-0.8285049-1.0356302l-0.36247112-0.62137837-0.72494103-1.24275674-0.36247112-0.62137838-0.72494102-1.19097601-0.36247113-0.72494103-0.62137836-1.08741215-0.36246991-0.72494103-0.51781571-1.08741215-0.36247113-1.03563142-0.3624699-0.93206755-0.36247112-1.03563022a2.22660623 2.22660623 0 0 1-0.20712653-0.88028562l-0.36246991-1.24275674c-0.15534459-0.20712653-0.15534459-0.51781571-0.25890846-0.72494225l-0.36246991-1.34631939-0.10356387-0.72494102c-0.15534459-0.51781571-0.25890725-0.93206755-0.25890725-1.29453868L86.3558163 358.20885333l-0.20712653-1.29453867-0.1553446-0.88028563-0.10356265-1.29453867c0-0.41425184 0-0.77672297-0.10356266-1.13919287 0-0.36247111 0-0.72494102-0.15534459-0.93206755a26.25323615 26.25323615 0 0 1 0-4.40143053c0-0.36247111 0-0.72494102 0.15534459-0.93206756 0-0.36247111 0-0.77672297 0.10356266-1.13919408l0.10356265-1.29453746 0.1553446-0.88028684 0.20712653-1.34631939c0-0.20712653 0.15534459-0.46603378 0.15534459-0.72494103 0.10356266-0.46603378 0.25890725-0.93206755 0.25890725-1.29453868l0.10356387-0.72494103 0.36246991-1.34632061c0.10356266-0.25890725 0.10356266-0.51781571 0.25890846-0.72494103l0.36246991-1.24275673a2.22660623 2.22660623 0 0 0 0.20712653-0.82850491l0.36247112-1.08741214 0.3624699-0.98384828 0.36247113-0.98384949 0.51781571-1.03563021 0.36246991-0.77672296 0.62137836-1.08741215 0.36247113-0.72494224 0.72494102-1.19097481 0.36247112-0.62137837 0.72494103-1.24275674 0.36247112-0.56959644c0.20712653-0.36247111 0.51781571-0.72494102 0.8285049-1.08741215a2.64085808 2.64085808 0 0 1 0.5178145-0.62137837 3.26223645 3.26223645 0 0 1 0.8285049-0.98384949l0.72494102-0.8285049 0.72494225-0.72494102 1.44988205-1.55344593 215.4111692-215.46294992a43.60004859 43.60004859 0 0 1 61.77536592 0c17.08790518 17.08790518 17.08790518 44.79102461 0 61.77536591L234.70990222 306.78979318h660.31808117a43.65183052 43.65183052 0 1 1 0 87.40722371H127.05609955c-0.51781571-0.25890725-0.88028562-0.25890725-1.08741214-0.41425186z m772.06262518 236.43446994c0.41425184 0 0.77672297 0 1.13919409 0.10356265 0.46603378 0 0.8285049 0.15534459 1.29453746 0.1553446l0.88028684 0.10356386c0.51781571 0.10356266 0.93206755 0.10356266 1.34631939 0.25890725l0.72494102 0.10356266 1.29453869 0.36247112 0.72494102 0.10356266 1.34632061 0.36247112c0.25890725 0.15534459 0.51781571 0.15534459 0.72494104 0.25890725l1.24275673 0.36247111a2.22660623 2.22660623 0 0 0 0.8285049 0.25890726l1.08741215 0.36247112 0.98384828 0.36247112 0.98384949 0.36246991c0.36247111 0.10356266 0.72494102 0.36247111 1.03563021 0.51781571l0.88028683 0.31068918 1.08741215 0.62137837 0.72494103 0.36247113 1.24275673 0.72494103 0.62137838 0.36247111 1.19097481 0.72494103 0.62137837 0.36247112c0.36247111 0.25890725 0.72494102 0.51781571 1.03563142 0.88028563 0.25890725 0.10356266 0.51781571 0.36247111 0.62137838 0.46603378 0.41425184 0.25890725 0.77672297 0.51781571 1.03563021 0.82850489 0.20712653 0.25890725 0.56959644 0.51781571 0.82850489 0.72494103a35.78103823 35.78103823 0 0 1 3.78005095 3.62470756c0.20712653 0.25890725 0.46603378 0.51781571 0.56959765 0.77672296 0.25890725 0.20712653 0.51781571 0.56959644 0.72494102 0.8285037 0.25890725 0.36247111 0.51781571 0.72494102 0.8285049 0.98384948l0.5178145 0.62137838 0.8285049 1.0356302 0.36247112 0.62137837 0.72494103 1.24275674 0.36247112 0.62137838 0.72494102 1.19097601 0.36247113 0.72494103 0.62137836 1.08741215 0.36246991 0.72494103 0.51781571 1.08741215 0.36247113 1.03563142 0.3624699 0.93206755 0.36247112 1.03563022a2.22660623 2.22660623 0 0 1 0.20712653 0.88028562l0.36246991 1.24275674c0.15534459 0.20712653 0.15534459 0.51781571 0.25890846 0.72494225l0.36246991 1.34631939 0.10356387 0.72494102a6.2137837 6.2137837 0 0 1 0.25890725 1.29453868l0.15534459 0.77672297 0.20712653 1.29453867 0.1553446 0.88028563 0.10356265 1.34631939c0 0.36247111 0 0.72494102 0.10356266 1.03563142a26.25323615 26.25323615 0 0 1 0.10356387 5.33349688c0 0.41425184 0 0.77672297-0.10356387 1.03563142 0 0.36247111 0 0.72494102-0.10356266 1.03563022l-0.10356265 1.34631939-0.1553446 0.88028684-0.20712653 1.34631939c0 0.20712653-0.15534459 0.46603378-0.15534459 0.72494103-0.10356266 0.46603378-0.25890725 0.93206755-0.25890725 1.29453868l-0.10356387 0.72494103-0.36246991 1.34632061c-0.10356266 0.25890725-0.10356266 0.51781571-0.25890846 0.72494103l-0.36246991 1.24275673a2.22660623 2.22660623 0 0 0-0.20712653 0.82850491l-0.36247112 1.08741214-0.3624699 0.98384828-0.36247113 0.98384949-0.51781571 1.03563021-0.36246991 0.77672296-0.62137836 1.08741215-0.36247113 0.72494224-0.72494102 1.19097481-0.36247112 0.62137837-0.72494103 1.24275674-0.36247112 0.56959644c-0.20712653 0.36247111-0.51781571 0.72494102-0.8285049 1.08741215-0.10356266 0.25890725-0.36247111 0.51781571-0.5178145 0.62137837-0.20712653 0.36247111-0.46603378 0.72494102-0.8285049 0.98384949l-0.72494102 0.8285049-0.72494225 0.72494102-1.44988205 1.55344593-215.30760533 215.72185718a43.60004859 43.60004859 0 0 1-61.77536713 0 43.60004859 43.60004859 0 0 1 0-61.77536592l140.79398282-140.79398283H129.07557925a43.65183052 43.65183052 0 1 1 0-87.40722369H897.09924503c0.36247111 0 0.72494102 0 0.93206756 0.1553446z" /></svg>
