<?xml version="1.0" standalone="no"?><!DOCTYPE svg PUBLIC "-//W3C//DTD SVG 1.1//EN" "http://www.w3.org/Graphics/SVG/1.1/DTD/svg11.dtd"><svg class="icon" width="200px" height="200.00px" viewBox="0 0 1024 1024" version="1.1" xmlns="http://www.w3.org/2000/svg"><path d="M784.82394112 860.16606777L350.82998557 510.98055111l431.90651221-347.04952889a49.71027001 49.71027001 0 0 0-62.23492779-77.47811555L312.77056 414.03581667V116.50237667a40.92359111 40.92359111 0 0 0-40.97213667-40.97213667h-9.07794888a40.92359111 40.92359111 0 0 0-40.97213667 40.97213667V907.64325888c0 22.6706011 18.30153443 40.97213667 40.97213667 40.97213667h9.07794888a40.92359111 40.92359111 0 0 0 40.97213667-40.97213667v-299.52379221l409.72136334 329.57326222a49.85590557 49.85590557 0 0 0 69.95361109-7.62159446 49.71027001 49.71027001 0 0 0-7.62159331-69.90506666z" /></svg>
