<?xml version="1.0" standalone="no"?><!DOCTYPE svg PUBLIC "-//W3C//DTD SVG 1.1//EN" "http://www.w3.org/Graphics/SVG/1.1/DTD/svg11.dtd"><svg class="icon" width="200px" height="200.00px" viewBox="0 0 1024 1024" version="1.1" xmlns="http://www.w3.org/2000/svg"><path d="M240.2925989 860.16606777l434.09104555-349.18551666L242.47713223 163.93102222A49.71027001 49.71027001 0 0 1 304.71205888 86.45290667l407.63392 327.58291V116.50237667c0-22.62205667 18.35008-40.97213667 40.97213667-40.97213667h9.12649444c22.62205667 0 40.92359111 18.35008 40.92359111 40.97213667V907.64325888a40.92359111 40.92359111 0 0 1-40.92359111 40.97213667h-9.12649444a40.92359111 40.92359111 0 0 1-40.97213667-40.97213667v-299.52379221l-409.72136221 329.57326222a49.85590557 49.85590557 0 0 1-69.95361222-7.62159446 49.71027001 49.71027001 0 0 1 7.62159445-69.90506666z" /></svg>
