<svg xmlns="http://www.w3.org/2000/svg" xmlns:xlink="http://www.w3.org/1999/xlink" viewBox="0 0 456.01 262.12"><defs><style>.cls-1,.cls-3,.cls-4,.cls-5,.cls-6{opacity:0.4;}.cls-1{fill:url(#未命名的渐变_26);}.cls-2{opacity:0.7;}.cls-3{fill:url(#未命名的渐变_26-2);}.cls-4{fill:url(#未命名的渐变_26-3);}.cls-5{fill:url(#未命名的渐变_26-4);}.cls-6{fill:url(#未命名的渐变_26-5);}.cls-7{opacity:0.6;}.cls-8{fill:#0073cd;}.cls-9{fill:#40a8f5;}.cls-10{fill:#53b9f5;}.cls-11{fill:#85d3ff;}.cls-12{fill:#8cd7ff;}.cls-13{fill:#ebfcff;}.cls-14{fill:#ffb056;}.cls-15{fill:#e49056;}.cls-16{fill:#ffeed2;}.cls-17{fill:#398eed;}.cls-18,.cls-19,.cls-20,.cls-21,.cls-22,.cls-23,.cls-24{fill:none;stroke-miterlimit:10;}.cls-18{stroke:#4986d9;stroke-width:0.13px;}.cls-19,.cls-20,.cls-21,.cls-22,.cls-23,.cls-24{stroke-width:2px;}.cls-19{stroke:url(#未命名的渐变_26-6);}.cls-20{stroke:url(#未命名的渐变_26-7);}.cls-21{stroke:url(#未命名的渐变_26-8);}.cls-22{stroke:url(#未命名的渐变_26-9);}.cls-23{stroke:url(#未命名的渐变_26-10);}.cls-24{stroke:url(#未命名的渐变_26-11);}</style><linearGradient id="未命名的渐变_26" x1="232.75" y1="224.43" x2="232.75" y2="262.12" gradientUnits="userSpaceOnUse"><stop offset="0" stop-color="#81cfff"/><stop offset="1" stop-color="#5ecfff" stop-opacity="0"/></linearGradient><linearGradient id="未命名的渐变_26-2" x1="349.36" y1="26.68" x2="349.36" y2="204.03" xlink:href="#未命名的渐变_26"/><linearGradient id="未命名的渐变_26-3" x1="201.45" y1="55.61" x2="201.45" y2="204.03" xlink:href="#未命名的渐变_26"/><linearGradient id="未命名的渐变_26-4" x1="122.98" y1="26.68" x2="122.98" y2="204.03" xlink:href="#未命名的渐变_26"/><linearGradient id="未命名的渐变_26-5" x1="273.51" y1="0" x2="273.51" y2="209.54" xlink:href="#未命名的渐变_26"/><linearGradient id="未命名的渐变_26-6" x1="1" y1="91.35" x2="1" y2="181.12" xlink:href="#未命名的渐变_26"/><linearGradient id="未命名的渐变_26-7" x1="455.01" y1="72.11" x2="455.01" y2="161.88" xlink:href="#未命名的渐变_26"/><linearGradient id="未命名的渐变_26-8" x1="40.9" y1="143.88" x2="40.9" y2="199.51" xlink:href="#未命名的渐变_26"/><linearGradient id="未命名的渐变_26-9" x1="64.97" y1="95.36" x2="64.97" y2="123.17" xlink:href="#未命名的渐变_26"/><linearGradient id="未命名的渐变_26-10" x1="397.23" y1="104.2" x2="397.23" y2="132.02" xlink:href="#未命名的渐变_26"/><linearGradient id="未命名的渐变_26-11" x1="424.75" y1="133.49" x2="424.75" y2="189.13" xlink:href="#未命名的渐变_26"/></defs><title>升级中</title><g id="图层_2" data-name="图层 2"><g id="图层_1-2" data-name="图层 1"><path class="cls-1" d="M412.28,262.12c-23-23-61-37.69-179.53-37.69S76.24,239.1,53.21,262.12Z"/><g class="cls-2"><path class="cls-3" d="M380.66,26.68H318.07a2.71,2.71,0,0,0-2.82,2.59V201.44a2.71,2.71,0,0,0,2.82,2.59h62.59a2.72,2.72,0,0,0,2.82-2.59V29.27A2.72,2.72,0,0,0,380.66,26.68ZM328.3,147a.9.9,0,0,1-.95.87h-3.6a.9.9,0,0,1-.95-.87V127.27a.91.91,0,0,1,.95-.87h3.6a.91.91,0,0,1,.95.87Zm0-30.23a.91.91,0,0,1-.95.87h-3.6a.91.91,0,0,1-.95-.87V97a.91.91,0,0,1,.95-.87h3.6a.91.91,0,0,1,.95.87Zm0-30.24a.91.91,0,0,1-.95.87h-3.6a.91.91,0,0,1-.95-.87V66.8a.91.91,0,0,1,.95-.87h3.6a.91.91,0,0,1,.95.87Zm0-30.24a.91.91,0,0,1-.95.87h-3.6a.91.91,0,0,1-.95-.87V36.56a.91.91,0,0,1,.95-.87h3.6a.91.91,0,0,1,.95.87ZM340,147a.9.9,0,0,1-.94.87h-3.61a.91.91,0,0,1-.95-.87V127.27a.92.92,0,0,1,.95-.87h3.61a.91.91,0,0,1,.94.87Zm0-30.23a.91.91,0,0,1-.94.87h-3.61a.92.92,0,0,1-.95-.87V97a.92.92,0,0,1,.95-.87h3.61A.91.91,0,0,1,340,97Zm0-30.24a.91.91,0,0,1-.94.87h-3.61a.92.92,0,0,1-.95-.87V66.8a.92.92,0,0,1,.95-.87h3.61a.91.91,0,0,1,.94.87Zm0-30.24a.91.91,0,0,1-.94.87h-3.61a.92.92,0,0,1-.95-.87V36.56a.92.92,0,0,1,.95-.87h3.61a.91.91,0,0,1,.94.87ZM351.7,147a.9.9,0,0,1-.94.87h-3.61a.9.9,0,0,1-.94-.87V127.27a.91.91,0,0,1,.94-.87h3.61a.91.91,0,0,1,.94.87Zm0-30.23a.91.91,0,0,1-.94.87h-3.61a.91.91,0,0,1-.94-.87V97a.91.91,0,0,1,.94-.87h3.61a.91.91,0,0,1,.94.87Zm0-30.24a.91.91,0,0,1-.94.87h-3.61a.91.91,0,0,1-.94-.87V66.8a.91.91,0,0,1,.94-.87h3.61a.91.91,0,0,1,.94.87Zm0-30.24a.91.91,0,0,1-.94.87h-3.61a.91.91,0,0,1-.94-.87V36.56a.91.91,0,0,1,.94-.87h3.61a.91.91,0,0,1,.94.87ZM363.4,147a.9.9,0,0,1-.94.87h-3.61a.9.9,0,0,1-.94-.87V127.27a.91.91,0,0,1,.94-.87h3.61a.91.91,0,0,1,.94.87Zm0-30.23a.91.91,0,0,1-.94.87h-3.61a.91.91,0,0,1-.94-.87V97a.91.91,0,0,1,.94-.87h3.61a.91.91,0,0,1,.94.87Zm0-30.24a.91.91,0,0,1-.94.87h-3.61a.91.91,0,0,1-.94-.87V66.8a.91.91,0,0,1,.94-.87h3.61a.91.91,0,0,1,.94.87Zm0-30.24a.91.91,0,0,1-.94.87h-3.61a.91.91,0,0,1-.94-.87V36.56a.91.91,0,0,1,.94-.87h3.61a.91.91,0,0,1,.94.87ZM375.11,147a.91.91,0,0,1-.95.87h-3.61a.9.9,0,0,1-.94-.87V127.27a.91.91,0,0,1,.94-.87h3.61a.92.92,0,0,1,.95.87Zm0-30.23a.92.92,0,0,1-.95.87h-3.61a.91.91,0,0,1-.94-.87V97a.91.91,0,0,1,.94-.87h3.61a.92.92,0,0,1,.95.87Zm0-30.24a.92.92,0,0,1-.95.87h-3.61a.91.91,0,0,1-.94-.87V66.8a.91.91,0,0,1,.94-.87h3.61a.92.92,0,0,1,.95.87Zm0-30.24a.92.92,0,0,1-.95.87h-3.61a.91.91,0,0,1-.94-.87V36.56a.91.91,0,0,1,.94-.87h3.61a.92.92,0,0,1,.95.87Z"/><path class="cls-4" d="M231.1,55.61H171.8A2.71,2.71,0,0,0,169,58.2V201.44A2.71,2.71,0,0,0,171.8,204h59.3a2.71,2.71,0,0,0,2.82-2.59V58.2A2.71,2.71,0,0,0,231.1,55.61ZM182.47,159.37a1.16,1.16,0,0,1-1.2,1.11h-5.4a1.16,1.16,0,0,1-1.2-1.11v-5.22a1.15,1.15,0,0,1,1.2-1.1h5.4a1.15,1.15,0,0,1,1.2,1.1Zm0-12.88a1.15,1.15,0,0,1-1.2,1.1h-5.4a1.15,1.15,0,0,1-1.2-1.1v-5.22a1.16,1.16,0,0,1,1.2-1.11h5.4a1.16,1.16,0,0,1,1.2,1.11Zm0-12.89a1.16,1.16,0,0,1-1.2,1.11h-5.4a1.16,1.16,0,0,1-1.2-1.11v-5.22a1.15,1.15,0,0,1,1.2-1.1h5.4a1.15,1.15,0,0,1,1.2,1.1Zm0-12.88a1.15,1.15,0,0,1-1.2,1.1h-5.4a1.15,1.15,0,0,1-1.2-1.1V115.5a1.16,1.16,0,0,1,1.2-1.11h5.4a1.16,1.16,0,0,1,1.2,1.11Zm0-12.89a1.16,1.16,0,0,1-1.2,1.11h-5.4a1.16,1.16,0,0,1-1.2-1.11v-5.21a1.15,1.15,0,0,1,1.2-1.11h5.4a1.15,1.15,0,0,1,1.2,1.11Zm0-12.88a1.15,1.15,0,0,1-1.2,1.1h-5.4a1.15,1.15,0,0,1-1.2-1.1V89.73a1.16,1.16,0,0,1,1.2-1.11h5.4a1.16,1.16,0,0,1,1.2,1.11Zm0-12.89a1.16,1.16,0,0,1-1.2,1.11h-5.4a1.16,1.16,0,0,1-1.2-1.11V76.85a1.15,1.15,0,0,1,1.2-1.11h5.4a1.15,1.15,0,0,1,1.2,1.11Zm0-12.88a1.15,1.15,0,0,1-1.2,1.1h-5.4a1.15,1.15,0,0,1-1.2-1.1V64a1.16,1.16,0,0,1,1.2-1.11h5.4a1.16,1.16,0,0,1,1.2,1.11Zm10.08,90.19a1.16,1.16,0,0,1-1.2,1.11H186a1.16,1.16,0,0,1-1.21-1.11v-5.22a1.16,1.16,0,0,1,1.21-1.1h5.4a1.15,1.15,0,0,1,1.2,1.1Zm0-12.88a1.15,1.15,0,0,1-1.2,1.1H186a1.16,1.16,0,0,1-1.21-1.1v-5.22a1.16,1.16,0,0,1,1.21-1.11h5.4a1.16,1.16,0,0,1,1.2,1.11Zm0-12.89a1.16,1.16,0,0,1-1.2,1.11H186a1.16,1.16,0,0,1-1.21-1.11v-5.22a1.16,1.16,0,0,1,1.21-1.1h5.4a1.15,1.15,0,0,1,1.2,1.1Zm0-12.88a1.15,1.15,0,0,1-1.2,1.1H186a1.16,1.16,0,0,1-1.21-1.1V115.5a1.16,1.16,0,0,1,1.21-1.11h5.4a1.16,1.16,0,0,1,1.2,1.11Zm0-12.89a1.16,1.16,0,0,1-1.2,1.11H186a1.16,1.16,0,0,1-1.21-1.11v-5.21a1.16,1.16,0,0,1,1.21-1.11h5.4a1.15,1.15,0,0,1,1.2,1.11Zm0-12.88a1.15,1.15,0,0,1-1.2,1.1H186a1.16,1.16,0,0,1-1.21-1.1V89.73A1.16,1.16,0,0,1,186,88.62h5.4a1.16,1.16,0,0,1,1.2,1.11Zm0-12.89a1.16,1.16,0,0,1-1.2,1.11H186a1.16,1.16,0,0,1-1.21-1.11V76.85A1.16,1.16,0,0,1,186,75.74h5.4a1.15,1.15,0,0,1,1.2,1.11Zm0-12.88a1.15,1.15,0,0,1-1.2,1.1H186a1.16,1.16,0,0,1-1.21-1.1V64A1.16,1.16,0,0,1,186,62.85h5.4a1.16,1.16,0,0,1,1.2,1.11Zm10.08,90.19a1.16,1.16,0,0,1-1.21,1.11H196a1.16,1.16,0,0,1-1.2-1.11v-5.22a1.15,1.15,0,0,1,1.2-1.1h5.4a1.16,1.16,0,0,1,1.21,1.1Zm0-12.88a1.16,1.16,0,0,1-1.21,1.1H196a1.15,1.15,0,0,1-1.2-1.1v-5.22a1.16,1.16,0,0,1,1.2-1.11h5.4a1.16,1.16,0,0,1,1.21,1.11Zm0-12.89a1.16,1.16,0,0,1-1.21,1.11H196a1.16,1.16,0,0,1-1.2-1.11v-5.22a1.15,1.15,0,0,1,1.2-1.1h5.4a1.16,1.16,0,0,1,1.21,1.1Zm0-12.88a1.16,1.16,0,0,1-1.21,1.1H196a1.15,1.15,0,0,1-1.2-1.1V115.5a1.16,1.16,0,0,1,1.2-1.11h5.4a1.16,1.16,0,0,1,1.21,1.11Zm0-12.89a1.16,1.16,0,0,1-1.21,1.11H196a1.16,1.16,0,0,1-1.2-1.11v-5.21a1.15,1.15,0,0,1,1.2-1.11h5.4a1.16,1.16,0,0,1,1.21,1.11Zm0-12.88a1.16,1.16,0,0,1-1.21,1.1H196a1.15,1.15,0,0,1-1.2-1.1V89.73a1.16,1.16,0,0,1,1.2-1.11h5.4a1.16,1.16,0,0,1,1.21,1.11Zm0-12.89a1.16,1.16,0,0,1-1.21,1.11H196a1.16,1.16,0,0,1-1.2-1.11V76.85a1.15,1.15,0,0,1,1.2-1.11h5.4a1.16,1.16,0,0,1,1.21,1.11Zm0-12.88a1.16,1.16,0,0,1-1.21,1.1H196a1.15,1.15,0,0,1-1.2-1.1V64a1.16,1.16,0,0,1,1.2-1.11h5.4A1.16,1.16,0,0,1,202.63,64Zm25.21,90.19a1.16,1.16,0,0,1-1.2,1.11H206.1a1.16,1.16,0,0,1-1.2-1.11v-5.22a1.15,1.15,0,0,1,1.2-1.1h20.54a1.15,1.15,0,0,1,1.2,1.1Zm0-12.88a1.15,1.15,0,0,1-1.2,1.1H206.1a1.15,1.15,0,0,1-1.2-1.1v-5.22a1.16,1.16,0,0,1,1.2-1.11h20.54a1.16,1.16,0,0,1,1.2,1.11Zm0-12.89a1.16,1.16,0,0,1-1.2,1.11H206.1a1.16,1.16,0,0,1-1.2-1.11v-5.22a1.15,1.15,0,0,1,1.2-1.1h20.54a1.15,1.15,0,0,1,1.2,1.1Zm0-12.88a1.15,1.15,0,0,1-1.2,1.1H206.1a1.15,1.15,0,0,1-1.2-1.1V115.5a1.16,1.16,0,0,1,1.2-1.11h20.54a1.16,1.16,0,0,1,1.2,1.11Zm0-12.89a1.16,1.16,0,0,1-1.2,1.11H206.1a1.16,1.16,0,0,1-1.2-1.11v-5.21a1.15,1.15,0,0,1,1.2-1.11h20.54a1.15,1.15,0,0,1,1.2,1.11Zm0-12.88a1.15,1.15,0,0,1-1.2,1.1H206.1a1.15,1.15,0,0,1-1.2-1.1V89.73a1.16,1.16,0,0,1,1.2-1.11h20.54a1.16,1.16,0,0,1,1.2,1.11Zm0-12.89a1.16,1.16,0,0,1-1.2,1.11H206.1a1.16,1.16,0,0,1-1.2-1.11V76.85a1.15,1.15,0,0,1,1.2-1.11h20.54a1.15,1.15,0,0,1,1.2,1.11Zm0-12.88a1.15,1.15,0,0,1-1.2,1.1H206.1a1.15,1.15,0,0,1-1.2-1.1V64a1.16,1.16,0,0,1,1.2-1.11h20.54a1.16,1.16,0,0,1,1.2,1.11Z"/><path class="cls-5" d="M161.13,26.68H84.83A2.71,2.71,0,0,0,82,29.27V201.44A2.71,2.71,0,0,0,84.83,204h76.3a2.71,2.71,0,0,0,2.82-2.59V29.27A2.71,2.71,0,0,0,161.13,26.68ZM154.34,161a1.16,1.16,0,0,1-1.2,1.11H92.83A1.16,1.16,0,0,1,91.62,161v-5.21a1.16,1.16,0,0,1,1.21-1.11h60.31a1.15,1.15,0,0,1,1.2,1.11Zm0-14.67a1.15,1.15,0,0,1-1.2,1.1H92.83a1.16,1.16,0,0,1-1.21-1.1v-5.22A1.16,1.16,0,0,1,92.83,140h60.31a1.16,1.16,0,0,1,1.2,1.11Zm0-14.68a1.16,1.16,0,0,1-1.2,1.11H92.83a1.16,1.16,0,0,1-1.21-1.11v-5.22a1.16,1.16,0,0,1,1.21-1.1h60.31a1.15,1.15,0,0,1,1.2,1.1Zm0-14.68a1.16,1.16,0,0,1-1.2,1.11H92.83a1.16,1.16,0,0,1-1.21-1.11v-5.21a1.16,1.16,0,0,1,1.21-1.11h60.31a1.15,1.15,0,0,1,1.2,1.11Zm0-14.67a1.15,1.15,0,0,1-1.2,1.1H92.83a1.16,1.16,0,0,1-1.21-1.1V97a1.16,1.16,0,0,1,1.21-1.11h60.31a1.16,1.16,0,0,1,1.2,1.11Zm0-14.68a1.16,1.16,0,0,1-1.2,1.11H92.83a1.16,1.16,0,0,1-1.21-1.11V82.35a1.16,1.16,0,0,1,1.21-1.1h60.31a1.15,1.15,0,0,1,1.2,1.1Zm0-14.68a1.16,1.16,0,0,1-1.2,1.11H92.83a1.16,1.16,0,0,1-1.21-1.11V67.68a1.16,1.16,0,0,1,1.21-1.11h60.31a1.15,1.15,0,0,1,1.2,1.11Zm0-14.67a1.15,1.15,0,0,1-1.2,1.1H92.83a1.16,1.16,0,0,1-1.21-1.1V53a1.16,1.16,0,0,1,1.21-1.11h60.31a1.16,1.16,0,0,1,1.2,1.11Zm0-14.68a1.16,1.16,0,0,1-1.2,1.11H92.83a1.16,1.16,0,0,1-1.21-1.11V38.32a1.16,1.16,0,0,1,1.21-1.1h60.31a1.15,1.15,0,0,1,1.2,1.1Z"/><path class="cls-6" d="M306.21,0H240.82a2.51,2.51,0,0,0-2.42,2.59V206.94a2.51,2.51,0,0,0,2.42,2.6h65.39a2.51,2.51,0,0,0,2.41-2.6V2.59A2.51,2.51,0,0,0,306.21,0Zm-5.82,134.28a1.06,1.06,0,0,1-1,1.1H247.67a1.06,1.06,0,0,1-1-1.1v-5.22a1.07,1.07,0,0,1,1-1.11h51.69a1.07,1.07,0,0,1,1,1.11Zm0-14.68a1.07,1.07,0,0,1-1,1.11H247.67a1.07,1.07,0,0,1-1-1.11v-5.22a1.06,1.06,0,0,1,1-1.1h51.69a1.06,1.06,0,0,1,1,1.1Zm0-14.68a1.07,1.07,0,0,1-1,1.11H247.67a1.07,1.07,0,0,1-1-1.11V99.71a1.07,1.07,0,0,1,1-1.11h51.69a1.07,1.07,0,0,1,1,1.11Zm0-14.67a1.06,1.06,0,0,1-1,1.1H247.67a1.06,1.06,0,0,1-1-1.1V85a1.07,1.07,0,0,1,1-1.11h51.69a1.07,1.07,0,0,1,1,1.11Zm0-14.68a1.07,1.07,0,0,1-1,1.11H247.67a1.07,1.07,0,0,1-1-1.11V70.35a1.06,1.06,0,0,1,1-1.1h51.69a1.06,1.06,0,0,1,1,1.1Zm0-14.68a1.07,1.07,0,0,1-1,1.11H247.67a1.07,1.07,0,0,1-1-1.11V55.68a1.07,1.07,0,0,1,1-1.11h51.69a1.07,1.07,0,0,1,1,1.11Zm0-14.67a1.06,1.06,0,0,1-1,1.1H247.67a1.06,1.06,0,0,1-1-1.1V41a1.07,1.07,0,0,1,1-1.11h51.69a1.07,1.07,0,0,1,1,1.11Zm0-14.68a1.07,1.07,0,0,1-1,1.11H247.67a1.07,1.07,0,0,1-1-1.11V26.32a1.06,1.06,0,0,1,1-1.1h51.69a1.06,1.06,0,0,1,1,1.1Zm0-14.68a1.07,1.07,0,0,1-1,1.11H247.67a1.07,1.07,0,0,1-1-1.11V11.65a1.07,1.07,0,0,1,1-1.11h51.69a1.07,1.07,0,0,1,1,1.11Z"/></g><g class="cls-7"><path class="cls-8" d="M244.18,130.71c3.25,1.89,5.72,13.56,1,20.72-5.25,6.83-7,9-6.08,14-4.26-7.34-.59-7.39-5.84-14.22-4.64-6.22-2.51-17.4.72-20.49a28.12,28.12,0,0,0,10.24,0Z"/><path class="cls-9" d="M280.35,211.9a12.5,12.5,0,0,0-.13,1.74,11,11,0,0,0,.18,2,17.64,17.64,0,0,0-6.47-1.23,17.45,17.45,0,0,0-7.52,1.69,7.72,7.72,0,0,0-14.92-1,10.63,10.63,0,0,0-11.12.12c-.42-5.74-4.11-.84-9.83-.84-6,0-11.82-4.45-11.82,1.69a11.54,11.54,0,0,0,.45,3.19,7.7,7.7,0,0,0-3,1,14.65,14.65,0,0,0-13.85-12.73c22.56-10.28,22.38-44.56,24.8-74.6.14-1.71,1.22-4.09,1.81-4.37h0a12.54,12.54,0,0,0,5.05,2.1c-3.23,3.09-5.36,14.27-.72,20.49,5.25,6.83,1.58,6.88,5.84,14.22-.91-5,.83-7.16,6.08-14,4.76-7.16,2.29-18.83-1-20.72a12.71,12.71,0,0,0,5.08-2.1h0c.59.28,1.67,2.66,1.81,4.37C253.62,164.57,250.37,198.53,280.35,211.9Z"/><path class="cls-10" d="M303.32,203.17a9.77,9.77,0,0,0-9.77,9.77c0,.31,0,.63,0,.95a7.6,7.6,0,0,0-6-2.54,8.27,8.27,0,0,0-2.12.28,8.73,8.73,0,0,0,1.14-4.32A8.35,8.35,0,0,0,270,206a9.83,9.83,0,0,0-.1,1.34,8.76,8.76,0,0,0,.14,1.55,13.58,13.58,0,0,0-10.79.35,6,6,0,0,0-11.5-.74,8.22,8.22,0,0,0-4.21-1.16,8.09,8.09,0,0,0-4.37,1.26,8.35,8.35,0,0,0-16.69.65,9,9,0,0,0,.34,2.46,5.84,5.84,0,0,0-2.34.78,11.3,11.3,0,0,0-10.68-9.82h-.42a11.07,11.07,0,0,0-8.77,4.34,12.49,12.49,0,0,0-23,1.09,15.89,15.89,0,0,1,6.56,12.86,15.66,15.66,0,0,1-1.46,6.64,10.52,10.52,0,0,1,7.76-3.39,10.23,10.23,0,0,1,2.67.34,10.56,10.56,0,0,1,7.75-15.79,10.39,10.39,0,0,1,1.37-.09,10.55,10.55,0,0,1,10.55,10.55,10.08,10.08,0,0,1-.18,1.92,17.4,17.4,0,0,1,13.61.43,7.56,7.56,0,0,1,14.52-.91,10.54,10.54,0,0,1,5.32-1.44,10.38,10.38,0,0,1,5.38,1.49l.12.06a10.54,10.54,0,0,1,8-9.45,11,11,0,0,1,2.52-.3,10.56,10.56,0,0,1,10.56,10.56,10.83,10.83,0,0,1-.44,3,7.48,7.48,0,0,1,3,1,14.14,14.14,0,0,1,14-12.11,13.81,13.81,0,0,1,4.38.7,14,14,0,0,1,6.69,4.64A15.89,15.89,0,0,1,312.65,210,9.78,9.78,0,0,0,303.32,203.17Z"/><path class="cls-11" d="M314.44,209.92a15.22,15.22,0,0,0-1.79.1,15.89,15.89,0,0,0-12.45,8.74,14,14,0,0,0-6.69-4.64,13.81,13.81,0,0,0-4.38-.7,14.14,14.14,0,0,0-14,12.11,7.48,7.48,0,0,0-3-1,10.83,10.83,0,0,0,.44-3A10.56,10.56,0,0,0,262.06,211a11,11,0,0,0-2.52.3,10.54,10.54,0,0,0-8,9.45l-.12-.06a10.38,10.38,0,0,0-5.38-1.49,10.54,10.54,0,0,0-5.32,1.44,7.56,7.56,0,0,0-14.52.91,17.4,17.4,0,0,0-13.61-.43,10.08,10.08,0,0,0,.18-1.92,10.55,10.55,0,0,0-10.55-10.55,10.39,10.39,0,0,0-1.37.09,10.56,10.56,0,0,0-7.75,15.79,10.23,10.23,0,0,0-2.67-.34,10.52,10.52,0,0,0-7.76,3.39,15.69,15.69,0,0,0,1.46-6.64,15.89,15.89,0,0,0-6.56-12.86h0a15.89,15.89,0,1,0,3,22.87A10.56,10.56,0,1,0,201,234.72c0-1.95.37-.06.37,2.73A17.53,17.53,0,1,0,235,230.58l.5-.11a10.55,10.55,0,0,0,21,.07,10.49,10.49,0,0,0,5.5,1.55,10,10,0,0,0,1.73-.15v.15a7.56,7.56,0,0,0,14,3.94,14.13,14.13,0,0,0,23.5-1.27,15.89,15.89,0,1,0,13.13-24.84Z"/></g><path class="cls-12" d="M239.08,70a11.62,11.62,0,1,1-11.61,11.62A11.62,11.62,0,0,1,239.08,70Z"/><path class="cls-9" d="M239.08,137.18c8.33,0,13.47-1.72,16.58-7.93a10.11,10.11,0,0,1-4.13,8.15,15.55,15.55,0,0,1-6.2,2.56,34,34,0,0,1-12.5,0,15.33,15.33,0,0,1-6.16-2.56,10.15,10.15,0,0,1-4.17-8.15C225.62,135.46,230.74,137.18,239.08,137.18Z"/><path class="cls-9" d="M288.36,151.74a.82.82,0,0,1-1.49.5c-7.6-10.25-25.54-25-30.44-24.71,2.42-6.13,3.38-15.89,3.65-31.17C271.49,100.3,288.27,122.43,288.36,151.74Z"/><path class="cls-9" d="M218.09,96.33c.26,15.23,1.22,25,3.63,31.14l-.16.06c-4.89-.28-22.83,14.46-30.43,24.71a.82.82,0,0,1-1.49-.5c.08-29.39,17-51.55,28.36-55.41Z"/><path class="cls-9" d="M250.7,81.59a11.62,11.62,0,1,0-11.62,11.62A11.62,11.62,0,0,0,250.7,81.59Zm2.16,0a13.78,13.78,0,1,1-13.78-13.77A13.78,13.78,0,0,1,252.86,81.59Z"/><path class="cls-9" d="M239.08,48.71c5.66,0,10.66-2,13.8-4.94.51,1.27,1,2.6,1.45,3.95-3.32,3.25-8.91,5.37-15.25,5.37S227.15,51,223.82,47.72c.48-1.35,1-2.68,1.45-3.95C228.42,46.76,233.43,48.71,239.08,48.71Z"/><path class="cls-10" d="M252.88,43.77c-3.14,3-8.14,4.94-13.8,4.94s-10.66-2-13.81-4.94a73.16,73.16,0,0,1,7.6-14.53c.46-.67.92-1.31,1.38-1.91a6.06,6.06,0,0,1,9.66,0c.46.6.93,1.24,1.38,1.91A72.13,72.13,0,0,1,252.88,43.77Z"/><path class="cls-11" d="M260.08,96.36c-.27,15.28-1.23,25-3.65,31.17-.24.61-.5,1.18-.77,1.72-3.11,6.21-8.25,7.93-16.58,7.93s-13.46-1.72-16.58-7.93c-.28-.56-.53-1.15-.78-1.78-2.41-6.16-3.37-15.91-3.63-31.14-.06-3.42-.09-7.11-.09-11.12a115.86,115.86,0,0,1,5.82-37.49c3.33,3.25,8.92,5.37,15.26,5.37S251,51,254.33,47.72a115.54,115.54,0,0,1,5.84,37.49C260.17,89.22,260.14,92.93,260.08,96.36Zm-7.22-14.77a13.78,13.78,0,1,0-13.78,13.77A13.78,13.78,0,0,0,252.86,81.59Z"/><path class="cls-13" d="M89.11,245.7V245l18.41.41c.62,0,.88,0,1,0v.79Z"/><path class="cls-14" d="M102.79,239.28c.26.72,4,.65,4.15-.43l.74.14c-.11.77.75,2.39.59,4.43-.11,1.34.39,1.79.23,1.92s-.35.06-1,0L89.12,245c1.15-3,5.94-3.19,9-3.15s2.51-1.91,2.85-2.59a1.1,1.1,0,0,1,1.31-.44A.82.82,0,0,1,102.79,239.28Z"/><path class="cls-13" d="M139.23,246.08l18.4.41v.72l-19.41-.43,0-.72,0-.06C138.35,246.07,138.61,246.07,139.23,246.08Z"/><path class="cls-15" d="M127.83,161.36a10.81,10.81,0,0,0-2.34-4,10,10,0,0,0-3-2.26l-.23-.1-.27,1a6.64,6.64,0,0,1,3.27,8.58,4.19,4.19,0,0,1-.73,1.05c-.19.66-.42,1.16,0,1.69l1-.73c-.2-.16,0-.88.52-1.86S127.13,162.55,127.83,161.36Z"/><path class="cls-16" d="M125.34,159.6a6.25,6.25,0,0,1-.08,5,4.32,4.32,0,0,1-.73,1,3.73,3.73,0,0,1-1.32.88,3.81,3.81,0,0,1-2.68,0,4.71,4.71,0,0,1-1.29-.68,6.52,6.52,0,0,1-2.24-3c-1.13-2.92-.18-6,2.13-6.9A3.83,3.83,0,0,1,122,156,6.19,6.19,0,0,1,125.34,159.6Z"/><path class="cls-14" d="M140,239.45c.07,1.08,3.92,1.45,4.21.75a.75.75,0,0,1,.4-.4h0a1.11,1.11,0,0,1,1.44.44c.31.69-.3,2.62,2.73,2.71s7.82.44,8.83,3.54l-18.4-.41c-.62,0-.88,0-1-.08s.37-.56.32-1.91c-.08-2,.86-3.63.78-4.41Z"/><path class="cls-17" d="M143.73,238.11,140,239.45l-.66.23-.66.25-4.92-19.66-7.38-18.14-1.62.21-9.67,17.75-6.74,19-.69-.12-.74-.14-4.41-.79-1.76-.32,8.4-19.77,8.49-18.15h0c3.45-.19,10.17-2.74,14.1-5.09l8.36,22.71,5.14,20.12Z"/><path class="cls-16" d="M144.63,239.8h0a.75.75,0,0,0-.4.4c-.29.7-4.14.33-4.21-.75l3.71-1.34Z"/><path class="cls-16" d="M147.13,146c-.81.06-1.64,2.38-2,3s-.72.55-1.15-.06-.49-.85-.82-.34.73,1.25.58,3l-7.91,7.3-4.44,3.87-.05,0,2.11,2.92,4.81-4.88,7-8.07a7.72,7.72,0,0,1,2.09-1.4c1.09-.42.81-1.77,1-2.51S147.94,145.91,147.13,146Z"/><path class="cls-14" d="M133.42,165.69l2.48,3.44-4,3.65s1.9,15.21,2.79,19.52a8.51,8.51,0,0,1-2.92,2.42c-3.93,2.35-10.65,4.9-14.1,5.09a5.1,5.1,0,0,1-1.28-.06l2.18-16a13.2,13.2,0,0,0-.09-4.16l-.42-2.31a19.21,19.21,0,0,1,.53-9.13c.27-.87.51-1.7.66-2.31a4.71,4.71,0,0,0,1.29.68c.26,1,.17,1.68-.23,2s.22,1.51,2.31,1.07c.63-.12.17-.85.45-1.2l1-.76h0c.13-.09.27-.18.4-.29l1-.73,5.58-4.16.26.35Z"/><path class="cls-16" d="M128.38,136.11c-.94-.58-1.92-.39-1.93,0s.69,3.09.48,3.37-.81-.38-1.41-.75-.53,1.1-.23.91.92.82,1.6,1.72l-4.4,13.81a10,10,0,0,1,3,2.26L128.93,142s.52-1.8.81-2.75A3.73,3.73,0,0,0,128.38,136.11Z"/><path class="cls-16" d="M124.49,167.31l-.4.29h0a4.37,4.37,0,0,0-1,.76c-.28.35.18,1.08-.45,1.2-2.09.44-2.7-.73-2.31-1.07s.49-1,.23-2a3.81,3.81,0,0,0,2.68,0,3.73,3.73,0,0,0,1.32-.88C124.34,166.28,124.11,166.78,124.49,167.31Z"/><path class="cls-16" d="M102.53,238.06l4.41.79c-.12,1.08-3.89,1.15-4.15.43a.82.82,0,0,0-.53-.48l.27-.74Z"/><polyline class="cls-18" points="89.12 244.98 89.11 245.7 108.51 246.13 108.5 245.34 108.5 245.31"/><polyline class="cls-18" points="138.23 246.06 138.21 246.78 157.62 247.21 157.63 246.49"/><path d="M121.1,167.23c.13.08-.09-.94-.09-.94l.53.65.18-.81.59.44-.16-.88.67.4c0-.27.54-.61,1-1.47a3,3,0,0,0-.6-2.66c-.4-.43-1.15-.57-1.09-1a.65.65,0,0,1,.68-.62c.27,0,.31-.41.92-1.18l.17-.21c.77-.9.5-1.67-.22-2.55s-2.12-1-3.58-1a5.4,5.4,0,0,0-5,7.7c1.19,3.35,3,3.58,3.8,3.8a4.13,4.13,0,0,0,1.45.09A1,1,0,0,1,121.1,167.23Z"/><line class="cls-19" x1="1" y1="91.35" x2="1" y2="181.12"/><line class="cls-20" x1="455.01" y1="72.11" x2="455.01" y2="161.88"/><line class="cls-21" x1="40.9" y1="143.88" x2="40.9" y2="199.51"/><line class="cls-22" x1="64.97" y1="95.36" x2="64.97" y2="123.17"/><line class="cls-23" x1="397.23" y1="104.2" x2="397.23" y2="132.02"/><line class="cls-24" x1="424.75" y1="133.49" x2="424.75" y2="189.13"/></g></g></svg>